Coordinates
version=1
nRows=30
nColumns=38
inDegrees=no

Units are S.I. units (second, meters, Newtons, ...)
If the header above contains a line with 'inDegrees', this indicates whether rotational values are in degrees (yes) or radians (no).

endheader
time	pelvis_tilt	pelvis_list	pelvis_rotation	pelvis_tx	pelvis_ty	pelvis_tz	hip_flexion_r	hip_adduction_r	hip_rotation_r	knee_angle_r	ankle_angle_r	subtalar_angle_r	mtp_angle_r	hip_flexion_l	hip_adduction_l	hip_rotation_l	knee_angle_l	ankle_angle_l	subtalar_angle_l	mtp_angle_l	lumbar_extension	lumbar_bending	lumbar_rotation	arm_flex_r	arm_add_r	arm_rot_r	elbow_flex_r	pro_sup_r	wrist_flex_r	wrist_dev_r	arm_flex_l	arm_add_l	arm_rot_l	elbow_flex_l	pro_sup_l	wrist_flex_l	wrist_dev_l
0.56	-2.55161	1.48545	-2.22854	0.718758	-0.146833	0.98848	-0.0614259	-0.18364	-0.219761	0.874617	-0.0169296	0	0	0.356383	0.0179332	-0.302169	0.542383	0.058393	0	0	-0.276925	-0.0560697	0.0722598	-0.149129	-0.211703	-0.018018	0.437143	1.42484	0	0	-0.0223204	-0.272121	0.469294	0.400998	1.22557	0	0
0.57	-2.37405	1.4903	-2.41353	0.718281	-0.137822	0.987884	-0.00407567	-0.196389	-0.185135	0.94392	-0.0656234	0	0	0.360434	0.024818	-0.311609	0.543296	0.0672037	0	0	-0.260856	-0.0667167	0.0801927	-0.153792	-0.211358	-0.0186835	0.43947	1.41974	0	0	-0.0250205	-0.278383	0.486306	0.410523	1.20878	0	0
0.58	-2.20935	1.48833	-2.58625	0.718008	-0.129123	0.987794	0.0491802	-0.209311	-0.151134	1.00883	-0.115627	0	0	0.359088	0.0336622	-0.323252	0.54089	0.0730012	0	0	-0.25006	-0.0800228	0.0873661	-0.156878	-0.210521	-0.0165182	0.442159	1.418	0	0	-0.0265675	-0.284497	0.496828	0.419321	1.19798	0	0
0.59	-1.99828	1.49816	-2.79992	0.719015	-0.121893	0.987008	0.11353	-0.201748	-0.117079	1.07155	-0.169046	0	0	0.346687	0.0464107	-0.307613	0.485891	0.0686454	0	0	-0.231627	-0.0833676	0.0915498	-0.156926	-0.206411	-0.0114304	0.442982	1.41782	0	0	-0.0277908	-0.297333	0.517524	0.436208	1.17347	0	0
0.6	-1.94661	1.48992	-2.85712	0.718834	-0.113493	0.988022	0.153811	-0.211031	-0.0901228	1.1241	-0.221725	0	0	0.336081	0.0569957	-0.310737	0.480917	0.0714786	0	0	-0.231204	-0.0956056	0.0950611	-0.157345	-0.20496	-0.0106283	0.4476	1.41599	0	0	-0.0275592	-0.302612	0.522575	0.44342	1.16574	0	0
0.61	-1.93342	1.48414	-2.87501	0.7186	-0.105191	0.989329	0.190021	-0.216156	-0.0666997	1.17071	-0.271549	0	0	0.322685	0.0655328	-0.309622	0.473882	0.0756488	0	0	-0.232563	-0.103853	0.0978321	-0.15741	-0.204436	-0.00903327	0.452214	1.41401	0	0	-0.0269518	-0.306063	0.526249	0.44871	1.15886	0	0
0.62	-1.96026	1.48191	-2.85052	0.718244	-0.0969416	0.990966	0.220233	-0.215963	-0.0482091	1.21204	-0.306125	0	0	0.305675	0.0708391	-0.3044	0.464693	0.0806498	0	0	-0.236564	-0.106609	0.0985588	-0.155991	-0.204647	-0.00710017	0.454983	1.41196	0	0	-0.0255176	-0.307091	0.527359	0.450792	1.15415	0	0
0.63	-2.00962	1.48192	-2.80195	0.717824	-0.0887837	0.99283	0.246922	-0.212507	-0.0333038	1.25023	-0.316685	0	0	0.286217	0.0735401	-0.298423	0.453302	0.0856409	0	0	-0.24193	-0.105751	0.097893	-0.153331	-0.205603	-0.00261229	0.456462	1.40914	0	0	-0.0228257	-0.30597	0.527086	0.448948	1.149	0	0
0.64	-1.99411	1.48333	-2.81094	0.71622	-0.0809999	0.994189	0.278134	-0.213896	-0.0278173	1.28634	-0.309196	0	0	0.271613	0.0789904	-0.28868	0.437768	0.0886542	0	0	-0.24159	-0.102631	0.0900736	-0.150262	-0.207904	0.00267876	0.45782	1.40183	0	0	-0.0191599	-0.301219	0.522546	0.441774	1.1484	0	0
0.65	-2.06233	1.48485	-2.73944	0.715674	-0.0730169	0.99631	0.299315	-0.211055	-0.023312	1.31425	-0.294447	0	0	0.250687	0.0794192	-0.283193	0.425553	0.0921922	0	0	-0.247814	-0.0986588	0.0857763	-0.14473	-0.207838	0.00575523	0.455414	1.39709	0	0	-0.0144012	-0.297153	0.516078	0.433525	1.1526	0	0
0.66	-2.12052	1.49457	-2.67736	0.715015	-0.0646705	0.997315	0.323895	-0.203936	-0.0269702	1.3386	-0.277076	0	0	0.235902	0.0721146	-0.275917	0.417157	0.101788	0	0	-0.246092	-0.0861761	0.0836712	-0.14324	-0.209944	0.00966446	0.455304	1.39364	0	0	-0.0119698	-0.291916	0.512193	0.425974	1.15591	0	0
0.67	-2.1457	1.49766	-2.64611	0.714452	-0.0570363	0.998852	0.347747	-0.200903	-0.0258062	1.35788	-0.26079	0	0	0.219716	0.0721274	-0.271283	0.403985	0.105478	0	0	-0.246973	-0.0821717	0.0773813	-0.136591	-0.208691	0.0147636	0.449589	1.38855	0	0	-0.00626887	-0.287736	0.503757	0.415568	1.1638	0	0
0.68	-2.14831	1.49956	-2.63616	0.713741	-0.0494672	1.00022	0.371503	-0.201893	-0.0275914	1.37226	-0.250527	0	0	0.204877	0.0734035	-0.268878	0.391623	0.109353	0	0	-0.246997	-0.0799696	0.069843	-0.129192	-0.206677	0.0188514	0.441628	1.38516	0	0	-0.000303701	-0.284151	0.495618	0.405514	1.17441	0	0
0.69	-2.156	1.49108	-2.62027	0.713178	-0.042304	1.00267	0.388435	-0.212302	-0.0271281	1.38033	-0.246125	0	0	0.18386	0.083528	-0.271615	0.375875	0.1057	0	0	-0.255708	-0.088074	0.0593372	-0.116291	-0.20068	0.0195187	0.427109	1.38597	0	0	0.00865696	-0.283748	0.489014	0.396833	1.18526	0	0
0.7	-2.16287	1.49337	-2.60566	0.712571	-0.0348559	1.00381	0.409603	-0.21025	-0.0265813	1.38572	-0.240767	0	0	0.170045	0.0839221	-0.26925	0.364638	0.109079	0	0	-0.256352	-0.0853622	0.0527235	-0.108801	-0.198382	0.0216805	0.418134	1.38752	0	0	0.0151714	-0.282165	0.48583	0.389616	1.19367	0	0
0.71	-2.18527	1.50504	-2.57611	0.711903	-0.0271517	1.00381	0.433474	-0.199758	-0.0301531	1.3881	-0.23566	0	0	0.161811	0.0751785	-0.263638	0.357132	0.118994	0	0	-0.250647	-0.0728545	0.0498092	-0.106528	-0.199711	0.0239283	0.415894	1.3864	0	0	0.0190898	-0.280363	0.488366	0.386113	1.19494	0	0
0.72	-2.22211	1.49828	-2.53095	0.711496	-0.0201435	1.006	0.444838	-0.205941	-0.0306987	1.38302	-0.233315	0	0	0.140743	0.0816964	-0.260961	0.343549	0.115795	0	0	-0.261247	-0.0778676	0.0413237	-0.0953086	-0.195445	0.026422	0.40517	1.38263	0	0	0.0284825	-0.282345	0.489051	0.381504	1.1982	0	0
0.73	-2.30082	1.5116	-2.44844	0.710235	-0.0125985	1.00573	0.466906	-0.20046	-0.0316189	1.37525	-0.222981	0	0	0.134629	0.0754867	-0.245979	0.339625	0.120073	0	0	-0.256785	-0.0614958	0.0413547	-0.0932424	-0.199374	0.0293555	0.405076	1.38207	0	0	0.0311583	-0.280058	0.492853	0.381246	1.19855	0	0
0.74	-2.32513	1.51307	-2.41443	0.710535	-0.00530414	1.00675	0.479478	-0.192805	-0.0414108	1.36619	-0.221525	0	0	0.120274	0.0692232	-0.245642	0.329818	0.128981	0	0	-0.25913	-0.0601426	0.0357718	-0.0893638	-0.197306	0.0334451	0.402276	1.37977	0	0	0.0378148	-0.283139	0.49869	0.381065	1.19749	0	0
0.75	-2.39433	1.51538	-2.33849	0.710092	0.00185215	1.00769	0.491158	-0.191323	-0.0483175	1.35102	-0.211541	0	0	0.106638	0.0667702	-0.236951	0.321998	0.132884	0	0	-0.263067	-0.0552091	0.0321004	-0.0846034	-0.1977	0.0385984	0.400133	1.37267	0	0	0.0440085	-0.284742	0.506994	0.381691	1.1928	0	0
0.76	-2.49456	1.51924	-2.23524	0.708978	0.00889319	1.00827	0.504338	-0.195332	-0.0507917	1.33115	-0.194749	0	0	0.0953536	0.0681728	-0.224164	0.31605	0.131649	0	0	-0.266345	-0.0469454	0.0307432	-0.0796687	-0.200378	0.0424297	0.399588	1.36856	0	0	0.048527	-0.284064	0.511979	0.383127	1.18966	0	0
0.77	-2.47858	1.52122	-2.24186	0.708236	0.0153788	1.00899	0.517067	-0.200349	-0.0609179	1.30946	-0.181556	0	0	0.0884743	0.0663554	-0.242422	0.312629	0.134031	0	0	-0.268975	-0.0452254	0.0235009	-0.0733516	-0.199849	0.0436547	0.397997	1.36625	0	0	0.0556104	-0.28506	0.515164	0.383794	1.18872	0	0
0.78	-2.58668	1.52223	-2.12908	0.707693	0.022267	1.01004	0.533399	-0.218982	-0.0944273	1.29707	-0.184032	0	0	0.073356	0.0634088	-0.235121	0.303389	0.136143	0	0	-0.275235	-0.0390248	0.0222892	-0.0684393	-0.202187	0.0485669	0.397848	1.35964	0	0	0.0630957	-0.282685	0.517042	0.38133	1.18704	0	0
0.79	-2.67211	1.52288	-2.03999	0.707562	0.029411	1.01075	0.537943	-0.2172	-0.103905	1.26772	-0.166123	0	0	0.0586852	0.061006	-0.229003	0.293493	0.139237	0	0	-0.279747	-0.0348297	0.02238	-0.0649359	-0.20308	0.051293	0.397779	1.35668	0	0	0.0695607	-0.281364	0.517613	0.379928	1.1865	0	0
0.8	-2.76384	1.52266	-1.94448	0.707438	0.0366053	1.01134	0.539793	-0.215693	-0.115176	1.23465	-0.148524	0	0	0.0431426	0.0588063	-0.221657	0.282601	0.143435	0	0	-0.284838	-0.0305156	0.0224664	-0.0614591	-0.204076	0.0542922	0.397649	1.35173	0	0	0.0759434	-0.279405	0.516926	0.377801	1.18736	0	0
0.81	-2.74019	1.511	-1.96498	0.7072	0.0435589	1.01331	0.530698	-0.223882	-0.124918	1.19521	-0.13325	0	0	0.0174384	0.0666297	-0.215875	0.26783	0.136671	0	0	-0.301788	-0.0369673	0.0196876	-0.0522661	-0.202101	0.0592954	0.392801	1.34184	0	0	0.0855779	-0.27785	0.508522	0.372756	1.19797	0	0
0.82	-2.87632	1.51991	-1.82604	0.707462	0.0508565	1.0124	0.53767	-0.21595	-0.140795	1.1568	-0.11746	0	0	0.0119126	0.0577627	-0.205563	0.261307	0.14313	0	0	-0.296298	-0.0259594	0.022728	-0.0523595	-0.204999	0.0620354	0.394325	1.34032	0	0	0.0893606	-0.274136	0.508418	0.370442	1.20094	0	0
0.83	-2.9433	1.51974	-1.7568	0.707634	0.0580451	1.01263	0.534771	-0.214791	-0.157215	1.11255	-0.101778	0	0	-0.00117284	0.0548059	-0.201657	0.253931	0.149201	0	0	-0.300561	-0.0226896	0.0235997	-0.0480858	-0.205542	0.0640201	0.393267	1.33699	0	0	0.0954606	-0.271719	0.50656	0.367386	1.20429	0	0
0.84	-3.01439	1.51886	-1.68339	0.707856	0.0652418	1.01281	0.529008	-0.213455	-0.176441	1.06491	-0.0857733	0	0	-0.0150783	0.0517283	-0.196585	0.245969	0.153924	0	0	-0.305526	-0.0191434	0.02401	-0.0431544	-0.205984	0.0658019	0.391493	1.33226	0	0	0.101359	-0.268979	0.50222	0.363909	1.20977	0	0
0.85	-3.08367	1.51737	-1.61198	0.70814	0.0725561	1.01293	0.520791	-0.211543	-0.197827	1.01372	-0.0716532	0	0	-0.0294707	0.0485519	-0.191074	0.23795	0.158225	0	0	-0.310911	-0.0154599	0.0241357	-0.0379586	-0.206557	0.0689427	0.389381	1.32754	0	0	0.106857	-0.266085	0.495822	0.360486	1.21766	0	0
